:SAMPLES-PER-SECOND 30
:FULLY-SPECIFIED
:DEGREES
378
root  29.8381 34.2492 11.8305 -171.619 26.1878 178.888
LeftUpLeg  -12.7371 14.0344 -1.01859
LeftLeg  13.2623 12.0607 2.01834
LeftFoot  0.142764 0.00142579 0.0563557
LeftToes  -15.2651 2.48695e-006 -1.03773e-007
Spine  2.20761 0.731144 -2.04723
Spine1  4.22361 1.50423 -3.72973
RightShoulder  0.0385973 6.54769 6.40874
RightArm  -31.8285 -13.6587 77.4654
RightForeArm  33.9824 13.5988 2.43766
RightHand  0.264548 -5.28605 -5.34943
LeftShoulder1  0.0554571 -0.0773785 -10.3063
LeftArm  -23.3097 12.7631 -63.064
LeftForeArm  38.3551 -10.712 -1.90159
LeftHand  0.190062 4.00492 5.05318
HEad  -11.0364 -39.3751 4.84792
RightUpLeg  -10.6471 -3.50562 -7.70401
RightLeg  10.7899 11.6096 1.4409
RightFoot  1.13495 0.0123497 0.315846
RightToes  -33.1115 -0.162618 -0.269184
379
root  29.8639 34.256 11.8408 -171.647 26.1026 178.945
LeftUpLeg  -12.6532 13.9165 -0.900726
LeftLeg  13.1886 12.115 2.01142
LeftFoot  0.240843 0.000961822 0.0739181
LeftToes  -15.417 2.48695e-006 -1.03773e-007
Spine  2.19799 0.71809 -2.0269
Spine1  4.19353 1.46295 -3.68109
RightShoulder  0.0394482 6.42941 6.35755
RightArm  -29.862 -12.9542 77.9058
RightForeArm  33.1363 14.4613 2.5996
RightHand  0.246152 -5.22005 -5.01954
LeftShoulder1  0.0545345 -0.00232287 -10.3314
LeftArm  -23.1889 12.3243 -63.5899
LeftForeArm  37.3468 -11.4558 -2.03827
LeftHand  0.187934 3.9949 5.00602
HEad  -10.9568 -39.4867 4.65692
RightUpLeg  -10.59 -3.72816 -7.59829
RightLeg  10.8283 11.7661 1.468
RightFoot  1.12544 0.012276 0.313668
RightToes  -32.9298 -0.162563 -0.269036
380
root  29.889 34.2656 11.8484 -171.701 25.9828 178.991
LeftUpLeg  -12.5262 13.8498 -0.788946
LeftLeg  13.0674 12.0724 1.97846
LeftFoot  0.328018 0.000806409 0.0874715
LeftToes  -15.3501 2.48695e-006 -1.03773e-007
Spine  2.18555 0.711928 -2.00331
Spine1  4.15777 1.43512 -3.63327
RightShoulder  0.040042 6.2419 6.36104
RightArm  -27.7365 -12.3104 78.257
RightForeArm  32.414 15.7592 2.84533
RightHand  0.231802 -5.17222 -4.75268
LeftShoulder1  0.0537052 0.0268168 -10.3688
LeftArm  -22.3887 12.0401 -64.2077
LeftForeArm  36.0343 -12.6582 -2.26047
LeftHand  0.178483 3.96456 4.77504
HEad  -11.0683 -39.6465 4.67361
RightUpLeg  -10.4279 -3.8314 -7.50963
RightLeg  10.6993 11.7724 1.4421
RightFoot  1.24235 0.0107725 0.332618
RightToes  -33.2185 -0.162509 -0.26886
381
root  29.9141 34.2777 11.8564 -171.751 25.8106 179.03
LeftUpLeg  -12.3742 13.7626 -0.685723
LeftLeg  12.8545 12.0135 1.92353
LeftFoot  0.46968 3.29029e-005 0.111788
LeftToes  -15.3969 2.48695e-006 -1.03773e-007
Spine  2.17583 0.694119 -1.972
Spine1  4.13038 1.3859 -3.5807
RightShoulder  0.0403239 6.10614 6.33935
RightArm  -25.7511 -11.6055 78.5398
RightForeArm  31.7063 16.9335 3.07052
RightHand  0.214984 -5.04192 -4.50414
LeftShoulder1  0.0529766 0.0326206 -10.3752
LeftArm  -21.1529 11.8177 -64.9525
LeftForeArm  34.5021 -14.1091 -2.53139
LeftHand  0.166156 3.954 4.43293
HEad  -11.108 -39.7488 4.80848
RightUpLeg  -10.1913 -4.00175 -7.42477
RightLeg  10.4185 11.8037 1.38767
RightFoot  1.36791 0.00915451 0.352291
RightToes  -33.227 -0.162463 -0.26866
382
root  29.9375 34.2888 11.865 -171.836 25.5912 179.058
LeftUpLeg  -12.1824 13.6664 -0.58719
LeftLeg  12.605 11.9128 1.8549
LeftFoot  0.624146 -0.000750551 0.137789
LeftToes  -15.45 2.48695e-006 -1.03773e-007
Spine  2.15517 0.680083 -1.94543
Spine1  4.08445 1.34779 -3.54817
RightShoulder  0.0403541 5.96004 6.30256
RightArm  -24.0137 -10.9229 78.7868
RightForeArm  31.1462 18.0052 3.27853
RightHand  0.203213 -5.01843 -4.25913
LeftShoulder1  0.0523556 0.0917787 -10.354
LeftArm  -19.5452 11.5486 -65.8525
LeftForeArm  33.1998 -15.4707 -2.78869
LeftHand  0.163363 3.85876 4.46859
HEad  -11.0325 -39.7602 4.97197
RightUpLeg  -9.93748 -4.16514 -7.3474
RightLeg  10.1882 11.772 1.3364
RightFoot  1.43889 0.00836773 0.358015
RightToes  -33.161 -0.162428 -0.268438
383
root  29.9542 34.2982 11.88 -171.956 25.397 179.035
LeftUpLeg  -12.0217 13.4951 -0.532748
LeftLeg  12.4377 11.8853 1.81546
LeftFoot  0.756506 -0.00105794 0.16024
LeftToes  -15.5102 2.48695e-006 -1.03773e-007
Spine  2.15274 0.696819 -1.93876
Spine1  4.07733 1.37238 -3.55363
RightShoulder  0.0401464 5.82692 6.23381
RightArm  -22.4491 -10.2594 78.9797
RightForeArm  30.5395 19.0326 3.48046
RightHand  0.198133 -5.03432 -4.12932
LeftShoulder1  0.0518495 0.152698 -10.356
LeftArm  -17.8616 11.0782 -66.7863
LeftForeArm  32.131 -16.5418 -2.99358
LeftHand  0.150975 3.59111 4.43467
HEad  -11.284 -39.8126 5.30953
RightUpLeg  -9.73532 -4.20601 -7.32596
RightLeg  10.0517 11.6363 1.29333
RightFoot  1.45893 0.00835166 0.350742
RightToes  -33.0828 -0.162412 -0.268197
384
root  29.9691 34.307 11.9037 -172.067 25.1453 179.04
LeftUpLeg  -11.905 13.6011 -0.470113
LeftLeg  12.2871 11.5554 1.73493
LeftFoot  0.907545 -0.00172428 0.181929
LeftToes  -15.6618 2.48695e-006 -1.03773e-007
Spine  2.17155 0.706323 -1.9267
Spine1  4.11188 1.38463 -3.54629
RightShoulder  0.0397032 5.79233 6.14368
RightArm  -21.3264 -9.63672 79.1203
RightForeArm  30.1134 19.8557 3.64407
RightHand  0.198142 -4.96407 -4.10293
LeftShoulder1  0.0514653 0.171022 -10.2973
LeftArm  -16.1729 10.3499 -67.7776
LeftForeArm  31.3099 -17.1226 -3.1058
LeftHand  0.133862 3.38009 4.15601
HEad  -11.7826 -39.8819 5.77323
RightUpLeg  -9.52733 -4.24597 -7.27927
RightLeg  9.90189 11.4638 1.24429
RightFoot  1.51257 0.00782934 0.350305
RightToes  -33.0779 -0.16242 -0.267939
385
root  29.9831 34.313 11.9371 -172.132 24.872 179.041
LeftUpLeg  -11.7957 13.6616 -0.421774
LeftLeg  12.0056 11.2629 1.63546
LeftFoot  1.11529 -0.00319756 0.214564
LeftToes  -15.8003 2.48695e-006 -1.03773e-007
Spine  2.17849 0.70604 -1.91494
Spine1  4.12132 1.37644 -3.53323
RightShoulder  0.0390702 5.79435 6.00935
RightArm  -20.552 -9.07638 79.2568
RightForeArm  29.8027 20.437 3.76069
RightHand  0.199163 -4.9556 -4.14217
LeftShoulder1  0.0512103 0.0397416 -10.1609
LeftArm  -14.183 9.53653 -68.6934
LeftForeArm  30.7213 -17.3117 -3.14267
LeftHand  0.120883 3.31389 3.79913
HEad  -12.2139 -39.8597 6.15451
RightUpLeg  -9.40354 -4.28466 -7.22149
RightLeg  9.81225 11.2504 1.20373
RightFoot  1.53053 0.00758913 0.344476
RightToes  -32.9591 -0.162457 -0.267668
386
root  29.9964 34.3187 11.9602 -172.175 24.7036 179.039
LeftUpLeg  -11.7161 13.5438 -0.370905
LeftLeg  11.8288 11.2118 1.59309
LeftFoot  1.26061 -0.00424742 0.239216
LeftToes  -15.867 2.48695e-006 -1.03773e-007
Spine  2.16969 0.7223 -1.90149
Spine1  4.09916 1.40197 -3.51365
RightShoulder  0.0383008 5.85984 5.91462
RightArm  -19.9408 -8.62405 79.2639
RightForeArm  29.5086 20.759 3.82575
RightHand  0.19889 -4.97721 -4.07723
LeftShoulder1  0.0510915 -0.223378 -10.0319
LeftArm  -12.0234 8.79421 -69.3868
LeftForeArm  30.7306 -17.3453 -3.14915
LeftHand  0.107261 3.29993 3.34533
HEad  -12.4873 -39.6734 6.33343
RightUpLeg  -9.32444 -4.36977 -7.17624
RightLeg  9.7408 11.178 1.18208
RightFoot  1.54658 0.00718202 0.340236
RightToes  -32.8516 -0.162529 -0.267386
387
root  30.0118 34.3265 11.9862 -172.229 24.5528 179.019
LeftUpLeg  -11.5935 13.1478 -0.317371
LeftLeg  11.5913 11.4403 1.57716
LeftFoot  1.46177 -0.0066099 0.283055
LeftToes  -15.9267 2.48695e-006 -1.03773e-007
Spine  2.1651 0.729498 -1.88557
Spine1  4.08665 1.41245 -3.48942
RightShoulder  0.037434 5.93259 5.83035
RightArm  -19.6413 -8.20876 79.2533
RightForeArm  29.5266 20.7301 3.81991
RightHand  0.200512 -4.99185 -4.10617
LeftShoulder1  0.0511161 -0.450048 -9.91758
LeftArm  -10.1732 8.13356 -69.9169
LeftForeArm  31.5488 -17.4456 -3.16805
LeftHand  0.0886318 3.15753 2.83872
HEad  -12.7993 -39.4734 6.43436
RightUpLeg  -9.2052 -4.41369 -7.14188
RightLeg  9.58456 11.0706 1.14054
RightFoot  1.60878 0.00605635 0.34616
RightToes  -32.7507 -0.162641 -0.267096
388
root  30.0275 34.3356 12.0003 -172.291 24.4151 179.042
LeftUpLeg  -11.5439 13.3333 -0.259645
LeftLeg  11.5558 11.1408 1.5294
LeftFoot  1.5308 -0.00648962 0.287288
LeftToes  -15.9255 2.48695e-006 -1.03773e-007
Spine  2.15911 0.71704 -1.85453
Spine1  4.07629 1.39011 -3.44314
RightShoulder  0.0364723 6.02711 5.70008
RightArm  -19.621 -7.88903 79.2752
RightForeArm  29.7094 20.3828 3.74985
RightHand  0.204159 -4.92535 -4.18735
LeftShoulder1  0.0512913 -0.472561 -9.72752
LeftArm  -8.70447 7.5621 -70.3988
LeftForeArm  32.6902 -17.529 -3.18341
LeftHand  0.0974271 3.44672 2.86154
HEad  -12.9683 -39.2237 6.46611
RightUpLeg  -8.99305 -4.58338 -7.07891
RightLeg  9.31685 11.1167 1.09312
RightFoot  1.72335 0.00390801 0.366978
RightToes  -32.6793 -0.1628 -0.266799
389
root  30.0429 34.3407 12.0181 -172.327 24.4919 179.05
LeftUpLeg  -11.4657 13.2619 -0.207663
LeftLeg  11.4557 11.2705 1.52707
LeftFoot  1.65022 -0.00787917 0.314154
LeftToes  -16.0532 2.48695e-006 -1.03773e-007
Spine  2.13191 0.74281 -1.83697
Spine1  4.02339 1.44104 -3.41428
RightShoulder  0.035471 6.14151 5.58913
RightArm  -19.7131 -7.73985 79.2557
RightForeArm  29.8655 19.9915 3.67135
RightHand  0.206182 -4.99379 -4.27031
LeftShoulder1  0.0516241 -0.50739 -9.64544
LeftArm  -8.21474 7.21135 -70.616
LeftForeArm  33.0971 -17.5936 -3.19564
LeftHand  0.0739821 2.81559 2.63323
HEad  -12.9267 -39.0754 6.43327
RightUpLeg  -8.90879 -4.59414 -7.03933
RightLeg  9.14012 11.203 1.06686
RightFoot  1.81701 0.00179207 0.386325
RightToes  -32.696 -0.16292 -0.2665
390
root  30.0597 34.3441 12.0401 -172.356 24.7347 179.054
LeftUpLeg  -11.4156 13.3393 -0.161764
LeftLeg  11.4274 11.4336 1.54319
LeftFoot  1.70706 -0.00863506 0.330532
LeftToes  -16.0996 2.48695e-006 -1.03773e-007
Spine  2.10776 0.803567 -1.82857
Spine1  3.97503 1.5642 -3.4013
RightShoulder  0.0345183 6.16923 5.53823
RightArm  -19.9287 -7.70779 79.1977
RightForeArm  30.0701 19.5563 3.58449
RightHand  0.20811 -5.04601 -4.34468
LeftShoulder1  0.0521218 -0.418348 -9.63547
LeftArm  -8.04968 7.05013 -70.5726
LeftForeArm  32.3345 -17.8265 -3.24142
LeftHand  0.0775941 3.02215 2.56499
HEad  -12.8828 -39.078 6.45937
RightUpLeg  -8.90939 -4.46432 -7.00615
RightLeg  9.04779 11.3116 1.05881
RightFoot  1.88199 -0.00014679 0.401963
RightToes  -32.7362 -0.162648 -0.2662
391
root  30.0775 34.3447 12.0597 -172.378 24.9569 179.051
LeftUpLeg  -11.4014 13.4591 -0.129043
LeftLeg  11.447 11.5297 1.55997
LeftFoot  1.74327 -0.00905105 0.341177
LeftToes  -16.0981 2.48695e-006 -1.03773e-007
Spine  2.07608 0.83864 -1.81941
Spine1  3.91246 1.63408 -3.38326
RightShoulder  0.0336434 6.14227 5.58171
RightArm  -20.2032 -7.88286 79.0389
RightForeArm  30.2518 19.1998 3.51368
RightHand  0.209142 -5.08012 -4.33624
LeftShoulder1  0.0527914 -0.304171 -9.70006
LeftArm  -8.3262 7.07424 -70.3166
LeftForeArm  31.802 -18.0731 -3.28981
LeftHand  0.0783019 3.0056 2.60802
HEad  -12.7923 -39.1618 6.46872
RightUpLeg  -8.93217 -4.32236 -6.97846
RightLeg  9.00732 11.3898 1.05798
RightFoot  1.90006 -0.00153511 0.408108
RightToes  -32.67 -0.162347 -0.265902
392
root  30.098 34.3413 12.0737 -172.413 25.0742 179.037
LeftUpLeg  -11.4283 13.5036 -0.0993439
LeftLeg  11.5865 11.6193 1.60051
LeftFoot  1.70479 -0.00898432 0.344062
LeftToes  -16.0751 2.48695e-006 -1.03773e-007
Spine  2.04959 0.82114 -1.79863
Spine1  3.85904 1.59553 -3.33586
RightShoulder  0.0328391 6.09074 5.65168
RightArm  -20.6099 -8.23013 78.8349
RightForeArm  30.4081 18.8683 3.44814
RightHand  0.212295 -5.06231 -4.39318
LeftShoulder1  0.05364 -0.219972 -9.72794
LeftArm  -8.83924 7.21454 -69.982
LeftForeArm  31.7724 -18.1198 -3.29893
LeftHand  0.0839322 2.9842 2.93054
HEad  -12.7683 -39.3142 6.51797
RightUpLeg  -8.98081 -4.27732 -6.96028
RightLeg  9.11465 11.4694 1.0868
RightFoot  1.81868 -0.00178074 0.395577
RightToes  -32.617 -0.16201 -0.265609
